<svg xmlns="http://www.w3.org/2000/svg" viewBox="0 0 256 256" role="img" aria-labelledby="planeTitle planeDesc" preserveAspectRatio="xMidYMid meet">
  <title id="planeTitle">Flight icon</title>
  <desc id="planeDesc">Modern airplane illustration with travel trail and brand gradient accents.</desc>
  <defs>
    <linearGradient id="planeGradient" x1="0%" y1="0%" x2="100%" y2="100%">
      <stop offset="0%" stop-color="#22c55e" />
      <stop offset="40%" stop-color="#10b981" />
      <stop offset="100%" stop-color="#60a5fa" />
    </linearGradient>
    <linearGradient id="trailGradient" x1="0%" y1="0%" x2="100%" y2="0%">
      <stop offset="0%" stop-color="#a7f3d0" stop-opacity="0.9" />
      <stop offset="100%" stop-color="#38bdf8" stop-opacity="0.2" />
    </linearGradient>
    <radialGradient id="halo" cx="50%" cy="40%" r="45%">
      <stop offset="0%" stop-color="#22c55e" stop-opacity="0.28" />
      <stop offset="100%" stop-color="#0f172a" stop-opacity="0" />
    </radialGradient>
  </defs>

  <rect width="256" height="256" rx="32" fill="transparent" />
  <circle cx="136" cy="110" r="70" fill="url(#halo)" />

  <path d="M80 146c-4 0-8 2-10 5l-12 18c-3 4-2 9 2 12 4 3 9 2 12-2l12-18a7 7 0 0 1 10-2l54 42c4 3 10 2 13-2s2-10-2-13l-28-22 34-28c9-8 10-23 2-33l-6-8c-8-10-24-12-34-4l-40 30a7 7 0 0 1-10-1l-11-16c-3-4-9-5-13-2-4 3-5 9-2 13l11 16c4 5 10 7 16 5l23-8 26 20c4 3 4 10 1 14-3 4-10 4-14 1l-35-25-21 7z" fill="url(#planeGradient)" />

  <path d="M193 73c0 0 26 24 22 52-4 28-38 44-66 43" fill="none" stroke="url(#trailGradient)" stroke-width="8" stroke-linecap="round" stroke-linejoin="round" stroke-dasharray="12 10" />
  <circle cx="190" cy="118" r="6" fill="#22c55e" opacity="0.85" />

  <path d="M45 177c18-16 45-35 82-56" fill="none" stroke="#34d399" stroke-width="4" stroke-linecap="round" opacity="0.65" />
  <path d="M53 182c20-10 59-26 96-43" fill="none" stroke="#60a5fa" stroke-width="3" stroke-linecap="round" opacity="0.45" />
</svg>
